<svg width="28" height="28" viewBox="0 0 28 28" fill="none" xmlns="http://www.w3.org/2000/svg">
<g clip-path="url(#clip0)">
<path d="M28.5469 0H0V28.35H28.5469V0ZM26.7344 26.55H1.8125V1.8H26.7344V26.55Z" fill="white"/>
<path d="M5.57812 19V7.625H9.5625C10.9427 7.625 11.9896 7.89062 12.7031 8.42188C13.4167 8.94792 13.7734 9.72135 13.7734 10.7422C13.7734 11.2995 13.6302 11.7917 13.3438 12.2188C13.0573 12.6406 12.6589 12.9505 12.1484 13.1484C12.7318 13.2943 13.1901 13.5885 13.5234 14.0312C13.862 14.474 14.0312 15.0156 14.0312 15.6562C14.0312 16.75 13.6823 17.5781 12.9844 18.1406C12.2865 18.7031 11.2917 18.9896 10 19H5.57812ZM7.92188 14.0469V17.1172H9.92969C10.4818 17.1172 10.9115 16.987 11.2188 16.7266C11.5312 16.4609 11.6875 16.0964 11.6875 15.6328C11.6875 14.5911 11.1484 14.0625 10.0703 14.0469H7.92188ZM7.92188 12.3906H9.65625C10.8385 12.3698 11.4297 11.8984 11.4297 10.9766C11.4297 10.4609 11.2786 10.0911 10.9766 9.86719C10.6797 9.63802 10.2083 9.52344 9.5625 9.52344H7.92188V12.3906ZM19.5391 19.1562C18.2995 19.1562 17.2891 18.776 16.5078 18.0156C15.7318 17.2552 15.3438 16.2422 15.3438 14.9766V14.7578C15.3438 13.9089 15.5078 13.151 15.8359 12.4844C16.1641 11.8125 16.6276 11.2969 17.2266 10.9375C17.8307 10.5729 18.5182 10.3906 19.2891 10.3906C20.4453 10.3906 21.3542 10.7552 22.0156 11.4844C22.6823 12.2135 23.0156 13.2474 23.0156 14.5859V15.5078H17.6328C17.7057 16.0599 17.9245 16.5026 18.2891 16.8359C18.6589 17.1693 19.125 17.3359 19.6875 17.3359C20.5573 17.3359 21.237 17.0208 21.7266 16.3906L22.8359 17.6328C22.4974 18.112 22.0391 18.487 21.4609 18.7578C20.8828 19.0234 20.2422 19.1562 19.5391 19.1562ZM19.2812 12.2188C18.8333 12.2188 18.4688 12.3698 18.1875 12.6719C17.9115 12.974 17.7344 13.4062 17.6562 13.9688H20.7969V13.7891C20.7865 13.2891 20.651 12.9036 20.3906 12.6328C20.1302 12.3568 19.7604 12.2188 19.2812 12.2188ZM21.7422 8.95312H16.3516V7.64844H21.7422V8.95312Z" fill="white"/>
</g>
<defs>
<clipPath id="clip0">
<rect width="28" height="28" fill="white"/>
</clipPath>
</defs>
</svg>
