<svg width="29" height="36" viewBox="0 0 29 36" fill="none" xmlns="http://www.w3.org/2000/svg">
<path d="M9.74219 11.025H7.92969V20.025H9.74219V11.025Z" fill="white"/>
<path d="M9.74219 6.975H7.92969V8.775H9.74219V6.975Z" fill="white"/>
<path d="M14.2734 16.65V15.525C14.2734 14.1525 15.3836 13.05 16.7656 13.05C18.1477 13.05 19.2578 14.1525 19.2578 15.525V20.025H21.0703V15.525C21.0703 13.1625 19.1445 11.25 16.7656 11.25C15.8367 11.25 14.9758 11.5425 14.2734 12.0375V11.025H12.4609V15.525V16.65V20.025H14.2734V16.65Z" fill="white"/>
<path d="M28.7734 0.225001H0.226562V28.575H28.7734V0.225001ZM26.9609 26.775H2.03906V2.025H26.9609V26.775Z" fill="white"/>
</svg>
